<svg xmlns="http://www.w3.org/2000/svg" viewBox="0 0 1136 440" width="1136" height="440" role="img" aria-labelledby="t d" font-family='system-ui, -apple-system, "Segoe UI", sans-serif'>
<title id="t">3 minutes fell through two levers</title>
<desc id="d">Source: mining/arcs/F-agent-labeling.md — Metrics: &quot;two levers, not one&quot; table</desc>
<rect x="0" y="0" width="1136" height="440" fill="#1a1a19"/>
<defs><pattern id="hatch-hand" width="8" height="8" patternTransform="rotate(45)" patternUnits="userSpaceOnUse">
    <rect width="8" height="8" fill="#3987e5"/>
    <line x1="0" y1="0" x2="0" y2="8" stroke="#0d2a52" stroke-width="3"/>
  </pattern>
</defs>
<line x1="300" y1="40" x2="300" y2="400" stroke="#2c2c2a" stroke-width="1"/>
<text x="300" y="430" text-anchor="middle" fill="#898781" font-size="22">0s</text>
<line x1="499" y1="40" x2="499" y2="400" stroke="#2c2c2a" stroke-width="1"/>
<text x="499" y="430" text-anchor="middle" fill="#898781" font-size="22">50s</text>
<line x1="698" y1="40" x2="698" y2="400" stroke="#2c2c2a" stroke-width="1"/>
<text x="698" y="430" text-anchor="middle" fill="#898781" font-size="22">100s</text>
<line x1="897" y1="40" x2="897" y2="400" stroke="#2c2c2a" stroke-width="1"/>
<text x="897" y="430" text-anchor="middle" fill="#898781" font-size="22">150s</text>
<line x1="1096" y1="40" x2="1096" y2="400" stroke="#2c2c2a" stroke-width="1"/>
<text x="1096" y="430" text-anchor="middle" fill="#898781" font-size="22">200s</text>
<line x1="300" y1="400" x2="1096" y2="400" stroke="#383835" stroke-width="2"/>
<text x="276" y="138" text-anchor="end" fill="#ffffff" font-size="26" font-weight="700">By hand, fresh label</text>
<rect x="300" y="98" width="716.4" height="64" rx="4" fill="url(#hatch-hand)" stroke="#3987e5" stroke-width="2"/>
<text x="1032.4" y="139" fill="#ffffff" font-size="28" font-weight="700">180s</text>
<text x="300" y="188" fill="#898781" font-size="22">about 3 minutes, on my stopwatch</text>
<text x="276" y="288" text-anchor="end" fill="#ffffff" font-size="26" font-weight="700">With agents</text>
<rect x="300" y="248" width="53.73000000000002" height="64" fill="#d95926"/>
<rect x="355.73" y="248" width="97.5" height="64" fill="#d95926" opacity="0.62"/>
<rect x="300" y="248" width="153.23000000000002" height="64" fill="none" stroke="#d95926" stroke-width="2" rx="4"/>
<line x1="423.38" y1="234" x2="483.08000000000004" y2="234" stroke="#ffffff" stroke-width="2" opacity="0.6"/>
<line x1="423.38" y1="228" x2="423.38" y2="240" stroke="#ffffff" stroke-width="2" opacity="0.6"/>
<line x1="483.08000000000004" y1="228" x2="483.08000000000004" y2="240" stroke="#ffffff" stroke-width="2" opacity="0.6"/>
<text x="469.23" y="289" fill="#ffffff" font-size="28" font-weight="700">31–46s total</text>
<text x="300" y="338" fill="#c3c2b7" font-size="22" font-weight="600">Agent first pass: 11–16s, measured</text>
<text x="300" y="366" fill="#c3c2b7" font-size="22" font-weight="600">My review: about 20–30s, by my count</text>
</svg>
