<svg xmlns="http://www.w3.org/2000/svg" viewBox="0 0 1136 440" width="1136" height="440" role="img" aria-labelledby="t d" font-family='system-ui, -apple-system, "Segoe UI", sans-serif'>
<title id="t">All lots, by day</title>
<desc id="d">Source: mining/findings/lot-top3-unlocked.md §4 (per-day counts, overall 71.3% reference) — backup/appendix panel split out of lot-bar.svg</desc>
<rect x="0" y="0" width="1136" height="440" fill="#1a1a19"/>
<text x="40" y="44" fill="#ffffff" font-size="26" font-weight="700">all lots, by day <tspan fill="#c3c2b7" font-size="22" font-weight="600">— dashed line: all lots 71.3%</tspan></text>
<line x1="90" y1="394" x2="1096" y2="394" stroke="#2c2c2a" stroke-width="1"/>
<text x="76" y="400" text-anchor="end" fill="#898781" font-size="22">0%</text>
<line x1="90" y1="319" x2="1096" y2="319" stroke="#2c2c2a" stroke-width="1"/>
<text x="76" y="325" text-anchor="end" fill="#898781" font-size="22">25%</text>
<line x1="90" y1="244" x2="1096" y2="244" stroke="#2c2c2a" stroke-width="1"/>
<text x="76" y="250" text-anchor="end" fill="#898781" font-size="22">50%</text>
<line x1="90" y1="169" x2="1096" y2="169" stroke="#2c2c2a" stroke-width="1"/>
<text x="76" y="175" text-anchor="end" fill="#898781" font-size="22">75%</text>
<line x1="90" y1="94" x2="1096" y2="94" stroke="#2c2c2a" stroke-width="1"/>
<text x="76" y="100" text-anchor="end" fill="#898781" font-size="22">100%</text>
<line x1="90" y1="180.2068965517241" x2="1096" y2="180.2068965517241" stroke="#c3c2b7" stroke-width="2" stroke-dasharray="7,7"/>
<line x1="257.66666666666663" y1="241.47224785564183" x2="257.66666666666663" y2="151.39435397937572" stroke="#ffffff" stroke-width="2" opacity="0.4"/>
<circle cx="257.66666666666663" cy="191.05882352941174" r="9" fill="#d95926" stroke="#1a1a19" stroke-width="2"/>
<text x="257.66666666666663" y="157.05882352941174" text-anchor="middle" fill="#ffffff" font-size="24" font-weight="700">67.6%</text>
<text x="257.66666666666663" y="424" text-anchor="middle" fill="#c3c2b7" font-size="22">09-12</text>
<line x1="425.3333333333333" y1="171.2733994060226" x2="425.3333333333333" y2="96.96248074927729" stroke="#ffffff" stroke-width="2" opacity="0.4"/>
<circle cx="425.3333333333333" cy="110.66666666666669" r="9" fill="#d95926" stroke="#1a1a19" stroke-width="2"/>
<text x="425.3333333333333" y="94.66666666666669" text-anchor="middle" fill="#ffffff" font-size="24" font-weight="700">94.4%</text>
<text x="425.3333333333333" y="424" text-anchor="middle" fill="#c3c2b7" font-size="22">09-13</text>
<line x1="593" y1="249.85266897306028" x2="593" y2="126.69182830954844" stroke="#ffffff" stroke-width="2" opacity="0.4"/>
<circle cx="593" cy="174.00000000000003" r="9" fill="#d95926" stroke="#1a1a19" stroke-width="2"/>
<text x="593" y="140.00000000000003" text-anchor="middle" fill="#ffffff" font-size="24" font-weight="700">73.3%</text>
<text x="593" y="424" text-anchor="middle" fill="#c3c2b7" font-size="22">09-14</text>
<line x1="760.6666666666666" y1="324.38273709553556" x2="760.6666666666666" y2="181.43029729549613" stroke="#ffffff" stroke-width="2" opacity="0.4"/>
<circle cx="760.6666666666666" cy="255.53846153846155" r="9" fill="#d95926" stroke="#1a1a19" stroke-width="2"/>
<text x="760.6666666666666" y="239.53846153846155" text-anchor="middle" fill="#ffffff" font-size="24" font-weight="700">46.2%</text>
<text x="760.6666666666666" y="424" text-anchor="middle" fill="#c3c2b7" font-size="22">09-15</text>
<line x1="928.3333333333333" y1="286.3212729555362" x2="928.3333333333333" y2="118.6651497127047" stroke="#ffffff" stroke-width="2" opacity="0.4"/>
<circle cx="928.3333333333333" cy="179.71428571428572" r="9" fill="#d95926" stroke="#1a1a19" stroke-width="2"/>
<text x="928.3333333333333" y="145.71428571428572" text-anchor="middle" fill="#ffffff" font-size="24" font-weight="700">71.4%</text>
<text x="928.3333333333333" y="424" text-anchor="middle" fill="#c3c2b7" font-size="22">09-16</text>
<line x1="90" y1="394" x2="1096" y2="394" stroke="#383835" stroke-width="2"/>
</svg>
