<svg xmlns="http://www.w3.org/2000/svg" viewBox="0 0 1136 440" width="1136" height="440" font-family='system-ui, -apple-system, "Segoe UI", sans-serif'>
<rect x="0" y="0" width="1136" height="440" fill="#1a1a19"/>
<rect x="40" y="24" width="336" height="118" rx="8" fill="#2c2c2a" opacity="0.45"/>
<text x="60" y="52" fill="#898781" font-size="22"><tspan x="60" y="52">Lock rate</tspan></text>
<text x="60" y="100" fill="#3987e5" font-size="38" font-weight="700">20.7%</text>
<text x="60" y="124" fill="#898781" font-size="22">18/87, CI 13.5–30.4</text>
<rect x="400" y="24" width="336" height="118" rx="8" fill="#2c2c2a" opacity="0.45"/>
<text x="420" y="52" fill="#898781" font-size="22"><tspan x="420" y="52">Lock precision</tspan></text>
<text x="420" y="100" fill="#3987e5" font-size="38" font-weight="700">88.9%</text>
<text x="420" y="124" fill="#898781" font-size="22">16/18, CI 67.2–96.9</text>
<rect x="760" y="24" width="336" height="118" rx="8" fill="#2c2c2a" opacity="0.45"/>
<text x="780" y="52" fill="#898781" font-size="22"><tspan x="780" y="52">Top-3 on non-locked lots</tspan></text>
<text x="780" y="100" fill="#3987e5" font-size="38" font-weight="700">65.2%</text>
<text x="780" y="124" fill="#898781" font-size="22">45/69, CI 53.4–75.4</text>
<text x="40" y="184" fill="#ffffff" font-size="26" font-weight="700">all lots, by day</text>
<line x1="90" y1="378" x2="1096" y2="378" stroke="#2c2c2a" stroke-width="1"/>
<text x="76" y="384" text-anchor="end" fill="#898781" font-size="22">0%</text>
<line x1="90" y1="335.5" x2="1096" y2="335.5" stroke="#2c2c2a" stroke-width="1"/>
<text x="76" y="341.5" text-anchor="end" fill="#898781" font-size="22">25%</text>
<line x1="90" y1="293" x2="1096" y2="293" stroke="#2c2c2a" stroke-width="1"/>
<text x="76" y="299" text-anchor="end" fill="#898781" font-size="22">50%</text>
<line x1="90" y1="250.5" x2="1096" y2="250.5" stroke="#2c2c2a" stroke-width="1"/>
<text x="76" y="256.5" text-anchor="end" fill="#898781" font-size="22">75%</text>
<line x1="90" y1="208" x2="1096" y2="208" stroke="#2c2c2a" stroke-width="1"/>
<text x="76" y="214" text-anchor="end" fill="#898781" font-size="22">100%</text>
<line x1="90" y1="256.85057471264366" x2="1096" y2="256.85057471264366" stroke="#c3c2b7" stroke-width="2" stroke-dasharray="7,7"/>
<text x="1096" y="246.85057471264366" text-anchor="end" fill="#c3c2b7" font-size="22" font-weight="600">all lots 71.3%</text>
<line x1="257.66666666666663" y1="291.56760711819703" x2="257.66666666666663" y2="240.52346725497958" stroke="#ffffff" stroke-width="2" opacity="0.4"/>
<circle cx="257.66666666666663" cy="263" r="9" fill="#d95926" stroke="#1a1a19" stroke-width="2"/>
<text x="257.66666666666663" y="247" text-anchor="middle" fill="#ffffff" font-size="24" font-weight="700">67.6%</text>
<text x="257.66666666666663" y="408" text-anchor="middle" fill="#c3c2b7" font-size="22">09-12</text>
<line x1="425.3333333333333" y1="251.78825966341282" x2="425.3333333333333" y2="209.6787390912571" stroke="#ffffff" stroke-width="2" opacity="0.4"/>
<circle cx="425.3333333333333" cy="217.44444444444446" r="9" fill="#d95926" stroke="#1a1a19" stroke-width="2"/>
<text x="425.3333333333333" y="201.44444444444446" text-anchor="middle" fill="#ffffff" font-size="24" font-weight="700">94.4%</text>
<text x="425.3333333333333" y="408" text-anchor="middle" fill="#c3c2b7" font-size="22">09-13</text>
<line x1="593" y1="296.3165124180675" x2="593" y2="226.5253693754108" stroke="#ffffff" stroke-width="2" opacity="0.4"/>
<circle cx="593" cy="253.33333333333334" r="9" fill="#d95926" stroke="#1a1a19" stroke-width="2"/>
<text x="593" y="237.33333333333334" text-anchor="middle" fill="#ffffff" font-size="24" font-weight="700">73.3%</text>
<text x="593" y="408" text-anchor="middle" fill="#c3c2b7" font-size="22">09-14</text>
<line x1="760.6666666666666" y1="338.55021768747014" x2="760.6666666666666" y2="257.5438351341145" stroke="#ffffff" stroke-width="2" opacity="0.4"/>
<circle cx="760.6666666666666" cy="299.53846153846155" r="9" fill="#d95926" stroke="#1a1a19" stroke-width="2"/>
<text x="760.6666666666666" y="283.53846153846155" text-anchor="middle" fill="#ffffff" font-size="24" font-weight="700">46.2%</text>
<text x="760.6666666666666" y="408" text-anchor="middle" fill="#c3c2b7" font-size="22">09-15</text>
<line x1="928.3333333333333" y1="316.98205467480386" x2="928.3333333333333" y2="221.97691817053266" stroke="#ffffff" stroke-width="2" opacity="0.4"/>
<circle cx="928.3333333333333" cy="256.57142857142856" r="9" fill="#d95926" stroke="#1a1a19" stroke-width="2"/>
<text x="928.3333333333333" y="240.57142857142856" text-anchor="middle" fill="#ffffff" font-size="24" font-weight="700">71.4%</text>
<text x="928.3333333333333" y="408" text-anchor="middle" fill="#c3c2b7" font-size="22">09-16</text>
<line x1="90" y1="378" x2="1096" y2="378" stroke="#383835" stroke-width="2"/>
</svg>
